<svg xmlns="http://www.w3.org/2000/svg" width="1400" height="360" viewBox="0 0 1400 360" role="img" aria-labelledby="title desc">
  <title id="title">Mission control profile section</title>
  <desc id="desc">A dark analytics command center summarizing projects, stack, metrics, and portfolio positioning.</desc>
  <defs>
    <linearGradient id="bg" x1="0" y1="0" x2="1" y2="1">
      <stop offset="0" stop-color="#08111f"/>
      <stop offset=".65" stop-color="#0b1729"/>
      <stop offset="1" stop-color="#052e2b"/>
    </linearGradient>
    <linearGradient id="accent" x1="0" y1="0" x2="1" y2="0">
      <stop offset="0" stop-color="#38bdf8"/>
      <stop offset=".52" stop-color="#2dd4bf"/>
      <stop offset="1" stop-color="#a3e635"/>
    </linearGradient>
  </defs>
  <rect width="1400" height="360" rx="28" fill="url(#bg)"/>
  <g opacity=".23" stroke="#24415f">
    <path d="M70 78h1260M70 154h1260M70 230h1260M70 306h1260"/>
    <path d="M180 50v260M360 50v260M540 50v260M720 50v260M900 50v260M1080 50v260M1260 50v260"/>
  </g>
  <text x="62" y="76" fill="#e5f2ff" font-family="Inter,Segoe UI,Arial" font-size="34" font-weight="900">Mission Control</text>
  <text x="62" y="112" fill="#9fb8d8" font-family="Inter,Segoe UI,Arial" font-size="18">A portfolio built around business impact, production habits, and polished demos.</text>
  <g transform="translate(62 156)">
    <rect width="280" height="132" rx="18" fill="#07111c" stroke="#263d59"/>
    <text x="24" y="42" fill="#93c5fd" font-family="Inter,Segoe UI,Arial" font-size="18" font-weight="800">Flagship Build</text>
    <text x="24" y="84" fill="#f8fafc" font-family="Inter,Segoe UI,Arial" font-size="31" font-weight="950">AlphaSignal</text>
    <text x="24" y="112" fill="#cbd5e1" font-family="Inter,Segoe UI,Arial" font-size="16">Trading intelligence platform</text>
  </g>
  <g transform="translate(374 156)">
    <rect width="280" height="132" rx="18" fill="#07111c" stroke="#263d59"/>
    <text x="24" y="42" fill="#93c5fd" font-family="Inter,Segoe UI,Arial" font-size="18" font-weight="800">Healthcare AI</text>
    <text x="24" y="84" fill="#f8fafc" font-family="Inter,Segoe UI,Arial" font-size="31" font-weight="950">DenialGuard</text>
    <text x="24" y="112" fill="#cbd5e1" font-family="Inter,Segoe UI,Arial" font-size="16">Risk scoring and drivers</text>
  </g>
  <g transform="translate(686 156)">
    <rect width="280" height="132" rx="18" fill="#07111c" stroke="#263d59"/>
    <text x="24" y="42" fill="#93c5fd" font-family="Inter,Segoe UI,Arial" font-size="18" font-weight="800">Core Stack</text>
    <text x="24" y="84" fill="#f8fafc" font-family="Inter,Segoe UI,Arial" font-size="31" font-weight="950">SQL + Python</text>
    <text x="24" y="112" fill="#cbd5e1" font-family="Inter,Segoe UI,Arial" font-size="16">BI, ML, APIs, pipelines</text>
  </g>
  <g transform="translate(998 156)">
    <rect width="340" height="132" rx="18" fill="#07111c" stroke="#263d59"/>
    <text x="24" y="42" fill="#93c5fd" font-family="Inter,Segoe UI,Arial" font-size="18" font-weight="800">Signal Mix</text>
    <path d="M28 104C71 90 96 96 134 72s66-12 104-34 56-8 72-22" fill="none" stroke="url(#accent)" stroke-width="7" stroke-linecap="round">
      <animate attributeName="d" dur="5s" repeatCount="indefinite" values="M28 104C71 90 96 96 134 72s66-12 104-34 56-8 72-22;M28 94C66 72 98 85 136 58s70-5 104-28 54-5 70-32;M28 104C71 90 96 96 134 72s66-12 104-34 56-8 72-22"/>
    </path>
    <circle cx="306" cy="54" r="7" fill="#a3e635">
      <animate attributeName="opacity" values=".35;1;.35" dur="2s" repeatCount="indefinite"/>
    </circle>
  </g>
</svg>
